<svg xmlns="http://www.w3.org/2000/svg" xmlns:xlink="http://www.w3.org/1999/xlink" width="40" zoomAndPan="magnify" viewBox="0 0 30 30.000001" height="40" preserveAspectRatio="xMidYMid meet" version="1.0"><defs><g/><clipPath id="899804c623"><path d="M 0.484375 0 L 29.515625 0 L 29.515625 29.03125 L 0.484375 29.03125 Z M 0.484375 0 " clip-rule="nonzero"/></clipPath><clipPath id="aea24f7c88"><path d="M 15 0 C 6.984375 0 0.484375 6.5 0.484375 14.515625 C 0.484375 22.53125 6.984375 29.03125 15 29.03125 C 23.015625 29.03125 29.515625 22.53125 29.515625 14.515625 C 29.515625 6.5 23.015625 0 15 0 Z M 15 0 " clip-rule="nonzero"/></clipPath></defs><g clip-path="url(#899804c623)"><g clip-path="url(#aea24f7c88)"><path fill="#000000" d="M 0.484375 0 L 29.515625 0 L 29.515625 29.03125 L 0.484375 29.03125 Z M 0.484375 0 " fill-opacity="1" fill-rule="nonzero"/></g></g><g fill="#fffa8b" fill-opacity="1"><g transform="translate(4.768614, 22.762325)"><g><path d="M 3.046875 -12.921875 C 3.046875 -14.078125 3.90625 -14.9375 5.0625 -14.9375 C 6.234375 -14.9375 7.09375 -14.078125 7.09375 -12.90625 L 7.09375 -10.609375 C 7.09375 -10.328125 7.296875 -10.109375 7.578125 -10.109375 L 8.75 -10.109375 C 9.046875 -10.109375 9.25 -10.328125 9.25 -10.609375 L 9.25 -12.921875 C 9.25 -15.40625 7.484375 -17.09375 5.078125 -17.09375 C 2.6875 -17.09375 0.890625 -15.40625 0.890625 -12.921875 L 0.890625 -4.046875 C 0.890625 -1.59375 2.6875 0.125 5.078125 0.125 C 7.484375 0.125 9.25 -1.59375 9.25 -4.046875 L 9.25 -6.390625 C 9.25 -6.671875 9.046875 -6.875 8.75 -6.875 L 7.578125 -6.875 C 7.296875 -6.875 7.09375 -6.671875 7.09375 -6.390625 L 7.09375 -4.0625 C 7.09375 -2.921875 6.28125 -2.03125 5.0625 -2.03125 C 3.859375 -2.03125 3.046875 -2.921875 3.046875 -4.046875 Z M 3.046875 -12.921875 "/></g></g></g><g fill="#fffa8b" fill-opacity="1"><g transform="translate(14.904259, 22.762325)"><g><path d="M 7.5625 -16.546875 L 6.546875 -11.34375 L 5.15625 -2.78125 L 3.78125 -11.34375 L 2.78125 -16.546875 C 2.734375 -16.78125 2.546875 -16.9375 2.296875 -16.9375 L 1.015625 -16.9375 C 0.65625 -16.9375 0.4375 -16.703125 0.515625 -16.34375 L 3.59375 -0.390625 C 3.65625 -0.15625 3.828125 0 4.09375 0 L 6.234375 0 C 6.484375 0 6.671875 -0.15625 6.71875 -0.390625 L 9.796875 -16.34375 C 9.875 -16.703125 9.671875 -16.9375 9.296875 -16.9375 L 8.046875 -16.9375 C 7.796875 -16.9375 7.609375 -16.78125 7.5625 -16.546875 Z M 7.5625 -16.546875 "/></g></g></g></svg>