<svg xmlns="http://www.w3.org/2000/svg" xmlns:xlink="http://www.w3.org/1999/xlink" width="40" zoomAndPan="magnify" viewBox="0 0 30 30.000001" height="40" preserveAspectRatio="xMidYMid meet" version="1.0"><defs><clipPath id="12cd8d91da"><path d="M 0.484375 0.726562 L 28.789062 0.726562 L 28.789062 29.03125 L 0.484375 29.03125 Z M 0.484375 0.726562 " clip-rule="nonzero"/></clipPath><clipPath id="1388936288"><path d="M 14.636719 0.726562 C 6.820312 0.726562 0.484375 7.0625 0.484375 14.878906 C 0.484375 22.695312 6.820312 29.03125 14.636719 29.03125 C 22.453125 29.03125 28.789062 22.695312 28.789062 14.878906 C 28.789062 7.0625 22.453125 0.726562 14.636719 0.726562 Z M 14.636719 0.726562 " clip-rule="nonzero"/></clipPath><clipPath id="f73970efbd"><path d="M 2.71875 3.230469 L 26 3.230469 L 26 27 L 2.71875 27 Z M 2.71875 3.230469 " clip-rule="nonzero"/></clipPath></defs><g clip-path="url(#12cd8d91da)"><g clip-path="url(#1388936288)"><path fill="#000000" d="M 0.484375 0.726562 L 28.789062 0.726562 L 28.789062 29.03125 L 0.484375 29.03125 Z M 0.484375 0.726562 " fill-opacity="1" fill-rule="nonzero"/></g></g><g clip-path="url(#f73970efbd)"><path fill="#fffa8b" d="M 17.125 26.507812 C 16.714844 24.273438 17.667969 21.933594 16.328125 19.796875 C 16.863281 19.625 17.402344 19.484375 17.921875 19.285156 C 20.859375 18.15625 22.039062 14.988281 20.503906 12.253906 C 20.164062 11.648438 20.035156 11.101562 20.113281 10.410156 C 20.183594 9.785156 20.023438 9.132812 19.945312 8.238281 C 19.058594 8.601562 18.382812 8.921875 17.671875 9.148438 C 17.15625 9.3125 16.628906 9.402344 16.09375 9.417969 C 14.972656 9.453125 13.839844 9.332031 12.730469 9.449219 C 12.066406 9.523438 11.546875 9.449219 10.972656 9.128906 C 10.367188 8.785156 9.683594 8.582031 8.832031 8.238281 C 8.730469 9.066406 8.535156 9.710938 8.605469 10.324219 C 8.695312 11.074219 8.527344 11.660156 8.171875 12.320312 C 6.578125 15.308594 8.175781 18.660156 11.570312 19.558594 C 11.824219 19.625 12.085938 19.675781 12.394531 19.75 C 12.171875 20.269531 12.003906 20.765625 11.75 21.210938 C 11.484375 21.675781 10.589844 21.640625 10.085938 21.144531 C 9.8125 20.878906 9.621094 20.53125 9.367188 20.238281 C 8.851562 19.640625 8.265625 19.167969 7.339844 19.28125 C 7.34375 19.925781 7.238281 20.554688 8.050781 20.804688 C 8.199219 20.851562 8.335938 21.027344 8.425781 21.175781 C 9.144531 22.375 10.144531 23.039062 11.640625 22.804688 L 11.640625 26.425781 C 7.617188 26.320312 3.097656 20.726562 2.9375 15.636719 C 2.738281 9.476562 7.328125 4.257812 13.40625 3.734375 C 19.242188 3.226562 24.777344 7.515625 25.625 13.199219 C 26.535156 19.285156 22.703125 25.304688 17.125 26.507812 Z M 17.125 26.507812 " fill-opacity="1" fill-rule="nonzero"/></g></svg>