<svg xmlns="http://www.w3.org/2000/svg" xmlns:xlink="http://www.w3.org/1999/xlink" width="40" zoomAndPan="magnify" viewBox="0 0 30 30.000001" height="40" preserveAspectRatio="xMidYMid meet" version="1.0"><defs><g/><clipPath id="3788e64580"><path d="M 0.9375 0.453125 L 29.0625 0.453125 L 29.0625 28.578125 L 0.9375 28.578125 Z M 0.9375 0.453125 " clip-rule="nonzero"/></clipPath><clipPath id="b943cc7f86"><path d="M 15 0.453125 C 7.234375 0.453125 0.9375 6.75 0.9375 14.515625 C 0.9375 22.28125 7.234375 28.578125 15 28.578125 C 22.765625 28.578125 29.0625 22.28125 29.0625 14.515625 C 29.0625 6.75 22.765625 0.453125 15 0.453125 Z M 15 0.453125 " clip-rule="nonzero"/></clipPath></defs><g clip-path="url(#3788e64580)"><g clip-path="url(#b943cc7f86)"><path fill="#000000" d="M 0.9375 0.453125 L 29.0625 0.453125 L 29.0625 28.578125 L 0.9375 28.578125 Z M 0.9375 0.453125 " fill-opacity="1" fill-rule="nonzero"/></g></g><g fill="#000000" fill-opacity="1"><g transform="translate(14.829889, 14.243954)"><g><path d="M 0.046875 -0.5625 C 0.046875 -0.546875 0.046875 -0.546875 0.0625 -0.546875 L 0.109375 -0.546875 C 0.125 -0.546875 0.125 -0.546875 0.125 -0.5625 L 0.125 -0.609375 C 0.125 -0.625 0.125 -0.640625 0.109375 -0.640625 L 0.0625 -0.640625 C 0.046875 -0.640625 0.046875 -0.625 0.046875 -0.609375 Z M 0.046875 -0.015625 C 0.046875 -0.015625 0.046875 0 0.0625 0 L 0.109375 0 C 0.109375 0 0.125 -0.015625 0.125 -0.015625 L 0.125 -0.46875 C 0.125 -0.46875 0.109375 -0.484375 0.109375 -0.484375 L 0.0625 -0.484375 C 0.046875 -0.484375 0.046875 -0.46875 0.046875 -0.46875 Z M 0.046875 -0.015625 "/></g></g></g><g fill="#000000" fill-opacity="1"><g transform="translate(14.991848, 14.243954)"><g><path d="M 0.046875 -0.5625 C 0.046875 -0.546875 0.046875 -0.546875 0.0625 -0.546875 L 0.109375 -0.546875 C 0.125 -0.546875 0.125 -0.546875 0.125 -0.5625 L 0.125 -0.609375 C 0.125 -0.625 0.125 -0.640625 0.109375 -0.640625 L 0.0625 -0.640625 C 0.046875 -0.640625 0.046875 -0.625 0.046875 -0.609375 Z M 0.046875 -0.015625 C 0.046875 -0.015625 0.046875 0 0.0625 0 L 0.109375 0 C 0.109375 0 0.125 -0.015625 0.125 -0.015625 L 0.125 -0.46875 C 0.125 -0.46875 0.109375 -0.484375 0.109375 -0.484375 L 0.0625 -0.484375 C 0.046875 -0.484375 0.046875 -0.46875 0.046875 -0.46875 Z M 0.046875 -0.015625 "/></g></g></g><g fill="#d3e97a" fill-opacity="1"><g transform="translate(8.777548, 22.750403)"><g><path d="M 1.046875 -15.21875 C 1.046875 -14.9375 1.25 -14.71875 1.546875 -14.71875 L 2.859375 -14.71875 C 3.140625 -14.71875 3.359375 -14.9375 3.359375 -15.21875 L 3.359375 -16.53125 C 3.359375 -16.828125 3.140625 -17.03125 2.859375 -17.03125 L 1.546875 -17.03125 C 1.25 -17.03125 1.046875 -16.828125 1.046875 -16.53125 Z M 1.15625 -0.5 C 1.15625 -0.203125 1.359375 0 1.65625 0 L 2.75 0 C 3.046875 0 3.25 -0.203125 3.25 -0.5 L 3.25 -12.609375 C 3.25 -12.890625 3.046875 -13.109375 2.75 -13.109375 L 1.65625 -13.109375 C 1.359375 -13.109375 1.15625 -12.890625 1.15625 -12.609375 Z M 1.15625 -0.5 "/></g></g></g><g fill="#d3e97a" fill-opacity="1"><g transform="translate(13.179808, 22.750403)"><g><path d="M 2.828125 -12 L 2.78125 -12.625 C 2.78125 -12.921875 2.5625 -13.109375 2.28125 -13.109375 L 1.546875 -13.109375 C 1.25 -13.109375 1.046875 -12.890625 1.046875 -12.609375 L 1.046875 -0.5 C 1.046875 -0.203125 1.25 0 1.546875 0 L 2.640625 0 C 2.9375 0 3.140625 -0.203125 3.140625 -0.5 L 3.140625 -9.640625 C 3.140625 -10.484375 3.828125 -11.15625 4.671875 -11.15625 C 5.5 -11.15625 6.1875 -10.484375 6.1875 -9.640625 L 6.1875 -0.5 C 6.1875 -0.203125 6.390625 0 6.6875 0 L 7.78125 0 C 8.078125 0 8.28125 -0.203125 8.28125 -0.5 L 8.28125 -10.140625 C 8.28125 -11.875 6.890625 -13.265625 5.21875 -13.265625 C 4.25 -13.265625 3.328125 -12.765625 2.828125 -12 Z M 2.828125 -12 "/></g></g></g></svg>